{"accessors":[{"bufferView":0,"componentType":5125,"count":364602,"max":[76766],"min":[0],"type":"SCALAR"},{"bufferView":1,"componentType":5126,"count":76767,"max":[3.315973997116089,4.2133588790893555,-0.10654419660568237],"min":[-3.231191873550415,-5.7394819259643555,-10.738208770751953],"type":"VEC3"},{"bufferView":2,"componentType":5126,"count":76767,"max":[1.0,1.0000001192092896,1.0],"min":[-1.0,-1.0000001192092896,-1.0],"type":"VEC3"},{"bufferView":3,"componentType":5126,"count":76767,"max":[1.0,1.0,1.0,1.0],"min":[-1.0,-1.0,-1.0,-1.0],"type":"VEC4"},{"bufferView":4,"componentType":5126,"count":76767,"max":[0.9976305961608887,0.9975585946813226],"min":[0.0019290447235107422,0.01688241958618164],"type":"VEC2"},{"bufferView":5,"componentType":5123,"count":8736,"max":[1894],"min":[0],"type":"SCALAR"},{"bufferView":6,"componentType":5126,"count":1895,"max":[2.2231497764587402,4.2034149169921875,-2.5091583728790283],"min":[-2.4621548652648926,2.552614212036133,-8.052183151245117],"type":"VEC3"},{"bufferView":7,"componentType":5126,"count":1895,"max":[0.9871469140052795,1.0,0.9882109761238098],"min":[-0.9871472120285034,-1.0,-0.9882118701934814],"type":"VEC3"},{"bufferView":8,"componentType":5126,"count":1895,"max":[1.0,0.9940723180770874,0.9997731447219849,1.0],"min":[-0.9882069230079651,-0.9945854544639587,-0.9999287724494934,1.0],"type":"VEC4"},{"bufferView":9,"componentType":5126,"count":1895,"max":[0.9825204610824585,0.9712311141192913],"min":[0.00244140625,0.15762704610824585],"type":"VEC2"},{"bufferView":10,"componentType":5123,"count":2880,"max":[1983],"min":[0],"type":"SCALAR"},{"bufferView":11,"componentType":5126,"count":1984,"max":[0.9999997019767761,1.0,0.9999994039535522],"min":[-0.9999990463256836,-1.0,-0.9999987483024597],"type":"VEC3"},{"bufferView":12,"componentType":5126,"count":1984,"max":[0.9904386401176453,0.99513840675354,0.9904389381408691],"min":[-0.9904384613037109,-0.99513840675354,-0.9904384613037109],"type":"VEC3"},{"bufferView":13,"componentType":5126,"count":1984,"max":[1.0000001192092896,1.0],"min":[0.0,0.0],"type":"VEC2"}],"asset":{"generator":"Soft8Soft Verge3D for Blender add-on","version":"2.0"},"bufferViews":[{"buffer":0,"byteLength":1458408,"byteOffset":0,"target":34963},{"buffer":0,"byteLength":921204,"byteOffset":1458408,"target":34962},{"buffer":0,"byteLength":921204,"byteOffset":2379612,"target":34962},{"buffer":0,"byteLength":1228272,"byteOffset":3300816,"target":34962},{"buffer":0,"byteLength":614136,"byteOffset":4529088,"target":34962},{"buffer":0,"byteLength":17472,"byteOffset":5143224,"target":34963},{"buffer":0,"byteLength":22740,"byteOffset":5160696,"target":34962},{"buffer":0,"byteLength":22740,"byteOffset":5183436,"target":34962},{"buffer":0,"byteLength":30320,"byteOffset":5206176,"target":34962},{"buffer":0,"byteLength":15160,"byteOffset":5236496,"target":34962},{"buffer":0,"byteLength":5760,"byteOffset":5251656,"target":34963},{"buffer":0,"byteLength":23808,"byteOffset":5257416,"target":34962},{"buffer":0,"byteLength":23808,"byteOffset":5281224,"target":34962},{"buffer":0,"byteLength":15872,"byteOffset":5305032,"target":34962}],"buffers":[{"byteLength":5320904,"uri":"Franck_Muller_Vanguard.bin"}],"cameras":[{"extensions":{"S8S_v3d_camera":{"controls":"ORBIT","enablePan":false,"moveSpeed":1.0,"orbitMaxDistance":1.0,"orbitMaxPolarAngle":3.1415927410125732,"orbitMaxZoom":100.0,"orbitMinDistance":0.6499999761581421,"orbitMinPolarAngle":0.0,"orbitMinZoom":0.009999999776482582,"orbitTarget":[0.0,0.05420000106096268,-0.0],"rotateSpeed":1.0,"viewportFitInitialAspect":1.7777777777777777,"viewportFitType":"AUTO"}},"name":"Camera","perspective":{"aspectRatio":1.7777777777777777,"yfov":0.21097861865719428,"zfar":100.0,"znear":0.10000000149011612},"type":"perspective"}],"extensions":{"S8S_v3d_lights":{"lights":[{"color":[1.0,1.0,1.0],"decay":2,"distance":10.00000011175871,"intensity":100.0,"name":"Lamp","profile":"blender","shadow":{"bias":-0.0018,"cameraFar":10.00000011175871,"cameraFov":0,"cameraNear":1.0007989406585693,"enabled":true,"expBias":2.5,"mapSize":512,"radius":1.0,"slopeScaledBias":2.5},"type":"point"}]}},"extensionsUsed":["S8S_v3d_texture","S8S_v3d_materials","S8S_v3d_camera","S8S_v3d_lights","S8S_v3d_mesh","S8S_v3d_node","S8S_v3d_scene"],"images":[{"uri":"Franck_muller_vanguardfbx_Franck_watch1_BaseColor-min.png"},{"uri":"Franck_muller_vanguardfbx_Franck_watch1_Metallic-min.png"},{"uri":"Franck_muller_vanguardfbx_Franck_watch1_Roughness-min.png"},{"uri":"Franck_muller_vanguardfbx_Franck_watch1_Normal-min.png"},{"uri":"Franck_muller_vanguardfbx_Franck_watch1_Height-min.png"},{"uri":"glass_glass_Height-min.png"},{"uri":"Ambient occlusion-min.png"},{"uri":"glass_glass_BaseColor-min.png"},{"uri":"glass_glass_Normal-min.png"},{"uri":"glass_glass_Metallic-min.png"},{"uri":"glass_glass_Roughness-min.png"},{"uri":"opacity-min.png"},{"uri":"glass_glass_Emissive-min.png"},{"uri":"environment.hdr"}],"materials":[{"extensions":{"S8S_v3d_materials":{"gtaoVisible":true,"materialIndex":0,"nodeGraph":{"edges":[{"fromNode":0,"fromOutput":0,"toInput":0,"toNode":6},{"fromNode":4,"fromOutput":0,"toInput":22,"toNode":0},{"fromNode":9,"fromOutput":0,"toInput":0,"toNode":0},{"fromNode":1,"fromOutput":0,"toInput":1,"toNode":9},{"fromNode":2,"fromOutput":0,"toInput":6,"toNode":0},{"fromNode":3,"fromOutput":0,"toInput":9,"toNode":0},{"fromNode":5,"fromOutput":0,"toInput":1,"toNode":4},{"fromNode":7,"fromOutput":0,"toInput":0,"toNode":8},{"fromNode":8,"fromOutput":0,"toInput":2,"toNode":6},{"fromNode":11,"fromOutput":0,"toInput":0,"toNode":10},{"fromNode":10,"fromOutput":0,"toInput":2,"toNode":9}],"nodes":[{"inputs":[[1.0,1.0,1.0,1.0],0.0,[1.0,0.20000000298023224,0.10000000149011612],[0.800000011920929,0.800000011920929,0.800000011920929,1.0],1.399999976158142,0.0,0.0,0.5,0.0,0.5527864098548889,0.0,0.0,0.0,0.5,0.0,0.029999999329447746,1.4500000476837158,0.0,0.0,[0.0,0.0,0.0,1.0],1.0,1.0,[0.0,0.0,0.0],[0.0,0.0,0.0],[0.0,0.0,0.0]],"is_active_output":false,"name":"Principled BSDF","outputs":[[0,0,0,0]],"type":"BSDF_PRINCIPLED_BL"},{"inputs":[[0.0,0.0,0.0]],"is_active_output":false,"name":"Image Texture","outputs":[[0.0,0.0,0.0,0.0],0.0],"projection":"FLAT","projectionBlend":0.0,"texture":0,"type":"TEX_IMAGE_BL"},{"inputs":[[0.0,0.0,0.0]],"is_active_output":false,"name":"Image Texture.002","outputs":[[0.0,0.0,0.0,0.0],0.0],"projection":"FLAT","projectionBlend":0.0,"texture":1,"type":"TEX_IMAGE_BL"},{"inputs":[[0.0,0.0,0.0]],"is_active_output":false,"name":"Image Texture.003","outputs":[[0.0,0.0,0.0,0.0],0.0],"projection":"FLAT","projectionBlend":0.0,"texture":2,"type":"TEX_IMAGE_BL"},{"inputs":[1.0,[0.5,0.5,1.0,1.0]],"is_active_output":false,"name":"Normal Map","outputs":[[0.0,0.0,0.0]],"type":"NORMAL_MAP_BL","uvLayer":""},{"inputs":[[0.0,0.0,0.0]],"is_active_output":false,"name":"Image Texture.004","outputs":[[0.0,0.0,0.0,0.0],0.0],"projection":"FLAT","projectionBlend":0.0,"texture":3,"type":"TEX_IMAGE_BL"},{"inputs":[[0,0,0,0],[0,0,0,0],[0.0,0.0,0.0],0.0],"is_active_output":true,"name":"Material Output","outputs":[],"type":"OUTPUT_MATERIAL_BL"},{"inputs":[[0.0,0.0,0.0]],"is_active_output":false,"name":"Image Texture.005","outputs":[[0.0,0.0,0.0,0.0],0.0],"projection":"FLAT","projectionBlend":0.0,"texture":4,"type":"TEX_IMAGE_BL"},{"inputs":[0.0,0.5,1.0,[0.0,0.0,0.0]],"is_active_output":false,"name":"Displacement","outputs":[[0.0,0.0,0.0]],"type":"DISPLACEMENT_BL"},{"blendType":"MULTIPLY","inputs":[0.5,[0.5,0.5,0.5,1.0],[0.5,0.5,0.5,1.0]],"is_active_output":false,"name":"Mix","outputs":[[0.0,0.0,0.0,0.0]],"type":"MIX_RGB_BL","useClamp":false},{"curve":{"input":[0.41454556584358215,0.5018181800842285],"interpolation":"LINEAR","output":[1.0,1.0,1.0,1.0,0.0,0.0,0.0,1.0]},"inputs":[0.5],"is_active_output":false,"name":"ColorRamp","outputs":[[0.0,0.0,0.0,0.0],0.0],"type":"VALTORGB_BL"},{"inputs":[[1.0,1.0,1.0,1.0],1.0,[0.0,0.0,0.0]],"is_active_output":false,"name":"Ambient Occlusion","outputs":[[0.0,0.0,0.0,0.0],0.0],"type":"AMBIENT_OCCLUSION_BL"}]},"useCastShadows":true}},"name":"Franck_watch1"},{"alphaMode":"BLEND","extensions":{"S8S_v3d_materials":{"blendMode":{"blendEquation":32774,"dstRGB":771,"srcRGB":1},"dithering":true,"gtaoVisible":false,"materialIndex":0,"nodeGraph":{"edges":[{"fromNode":1,"fromOutput":0,"toInput":22,"toNode":11},{"fromNode":3,"fromOutput":0,"toInput":1,"toNode":4},{"fromNode":2,"fromOutput":0,"toInput":2,"toNode":4},{"fromNode":4,"fromOutput":0,"toInput":0,"toNode":11},{"fromNode":5,"fromOutput":0,"toInput":1,"toNode":1},{"fromNode":6,"fromOutput":0,"toInput":6,"toNode":11},{"fromNode":7,"fromOutput":0,"toInput":9,"toNode":11},{"fromNode":8,"fromOutput":0,"toInput":21,"toNode":11},{"fromNode":9,"fromOutput":0,"toInput":19,"toNode":11},{"fromNode":0,"fromOutput":0,"toInput":0,"toNode":10},{"fromNode":15,"fromOutput":0,"toInput":0,"toNode":12},{"fromNode":13,"fromOutput":0,"toInput":1,"toNode":15},{"fromNode":16,"fromOutput":0,"toInput":2,"toNode":15}],"nodes":[{"inputs":[[0.0,0.0,0.0]],"is_active_output":false,"name":"Image Texture.007","outputs":[[0.0,0.0,0.0,0.0],0.0],"projection":"FLAT","projectionBlend":0.0,"texture":5,"type":"TEX_IMAGE_BL"},{"inputs":[1.0,[0.5,0.5,1.0,1.0]],"is_active_output":false,"name":"Normal Map","outputs":[[0.0,0.0,0.0]],"type":"NORMAL_MAP_BL","uvLayer":""},{"inputs":[[0.0,0.0,0.0]],"is_active_output":false,"name":"Image Texture.001","outputs":[[0.0,0.0,0.0,0.0],0.0],"projection":"FLAT","projectionBlend":0.0,"texture":6,"type":"TEX_IMAGE_BL"},{"inputs":[[0.0,0.0,0.0]],"is_active_output":false,"name":"Image Texture","outputs":[[0.0,0.0,0.0,0.0],0.0],"projection":"FLAT","projectionBlend":0.0,"texture":7,"type":"TEX_IMAGE_BL"},{"blendType":"MULTIPLY","inputs":[0.5,[0.5,0.5,0.5,1.0],[0.5,0.5,0.5,1.0]],"is_active_output":false,"name":"Mix","outputs":[[0.0,0.0,0.0,0.0]],"type":"MIX_RGB_BL","useClamp":false},{"inputs":[[0.0,0.0,0.0]],"is_active_output":false,"name":"Image Texture.002","outputs":[[0.0,0.0,0.0,0.0],0.0],"projection":"FLAT","projectionBlend":0.0,"texture":8,"type":"TEX_IMAGE_BL"},{"inputs":[[0.0,0.0,0.0]],"is_active_output":false,"name":"Image Texture.003","outputs":[[0.0,0.0,0.0,0.0],0.0],"projection":"FLAT","projectionBlend":0.0,"texture":9,"type":"TEX_IMAGE_BL"},{"inputs":[[0.0,0.0,0.0]],"is_active_output":false,"name":"Image Texture.004","outputs":[[0.0,0.0,0.0,0.0],0.0],"projection":"FLAT","projectionBlend":0.0,"texture":10,"type":"TEX_IMAGE_BL"},{"inputs":[[0.0,0.0,0.0]],"is_active_output":false,"name":"Image Texture.005","outputs":[[0.0,0.0,0.0,0.0],0.0],"projection":"FLAT","projectionBlend":0.0,"texture":11,"type":"TEX_IMAGE_BL"},{"inputs":[[0.0,0.0,0.0]],"is_active_output":false,"name":"Image Texture.006","outputs":[[0.0,0.0,0.0,0.0],0.0],"projection":"FLAT","projectionBlend":0.0,"texture":12,"type":"TEX_IMAGE_BL"},{"inputs":[0.0,0.5,1.0,[0.0,0.0,0.0]],"is_active_output":false,"name":"Displacement","outputs":[[0.0,0.0,0.0]],"type":"DISPLACEMENT_BL"},{"inputs":[[1.0,1.0,1.0,1.0],0.0,[1.0,0.20000000298023224,0.10000000149011612],[0.800000011920929,0.800000011920929,0.800000011920929,1.0],1.399999976158142,0.0,0.0,0.5,0.0,0.5527864098548889,0.0,0.0,0.0,0.5,0.0,0.029999999329447746,1.4500000476837158,0.0,0.0,[0.0,0.0,0.0,1.0],1.0,1.0,[0.0,0.0,0.0],[0.0,0.0,0.0],[0.0,0.0,0.0]],"is_active_output":false,"name":"Principled BSDF","outputs":[[0,0,0,0]],"type":"BSDF_PRINCIPLED_BL"},{"inputs":[[0,0,0,0],[0,0,0,0],[0.0,0.0,0.0],0.0],"is_active_output":true,"name":"Material Output","outputs":[],"type":"OUTPUT_MATERIAL_BL"},{"inputs":[[1.0,1.0,1.0,1.0],0.0,[0.0,0.0,0.0]],"is_active_output":false,"name":"Glossy BSDF","outputs":[[0,0,0,0]],"type":"BSDF_GLOSSY_BL"},{"inputs":[[1.0,1.0,1.0,1.0],0.0,1.25,[0.0,0.0,0.0]],"is_active_output":false,"name":"Glass BSDF","outputs":[[0,0,0,0]],"type":"BSDF_GLASS_BL"},{"inputs":[0.8999999761581421,[0,0,0,0],[0,0,0,0]],"is_active_output":false,"name":"Mix Shader","outputs":[[0,0,0,0]],"type":"MIX_SHADER_BL"},{"inputs":[[1.0,1.0,1.0,1.0]],"is_active_output":false,"name":"Transparent BSDF","outputs":[[0,0,0,0]],"type":"BSDF_TRANSPARENT_BL"}]},"useCastShadows":true}},"name":"glass"},{"extensions":{"S8S_v3d_materials":{"gtaoVisible":true,"materialIndex":0,"nodeGraph":{"edges":[{"fromNode":0,"fromOutput":0,"toInput":0,"toNode":1}],"nodes":[{"inputs":[[0.800000011920929,0.800000011920929,0.800000011920929,1.0],0.0,[1.0,0.20000000298023224,0.10000000149011612],[0.800000011920929,0.800000011920929,0.800000011920929,1.0],1.399999976158142,0.0,0.0,0.5,0.0,0.5,0.0,0.0,0.0,0.5,0.0,0.029999999329447746,1.4500000476837158,0.0,0.0,[0.26659730076789856,0.1006300151348114,0.09824342280626297,1.0],1.0,1.0,[0.0,0.0,0.0],[0.0,0.0,0.0],[0.0,0.0,0.0]],"is_active_output":false,"name":"Principled BSDF","outputs":[[0,0,0,0]],"type":"BSDF_PRINCIPLED_BL"},{"inputs":[[0,0,0,0],[0,0,0,0],[0.0,0.0,0.0],0.0],"is_active_output":true,"name":"Material Output","outputs":[],"type":"OUTPUT_MATERIAL_BL"}]},"useCastShadows":true}},"name":"Material"},{"extensions":{"S8S_v3d_materials":{"gtaoVisible":true,"materialIndex":0,"nodeGraph":{"edges":[{"fromNode":0,"fromOutput":0,"toInput":0,"toNode":1},{"fromNode":4,"fromOutput":0,"toInput":1,"toNode":2},{"fromNode":3,"fromOutput":0,"toInput":0,"toNode":2},{"fromNode":2,"fromOutput":0,"toInput":0,"toNode":0}],"nodes":[{"inputs":[[0.05087608844041824,0.05087608844041824,0.05087608844041824,1.0],1.0],"is_active_output":false,"name":"Background","outputs":[[0,0,0,0]],"type":"BACKGROUND_BL"},{"inputs":[[0,0,0,0],[0,0,0,0]],"is_active_output":true,"name":"World Output","outputs":[],"type":"OUTPUT_WORLD_BL"},{"blendType":"MIX","inputs":[0.5,[0.5,0.5,0.5,1.0],[0.05126946419477463,0.05126946419477463,0.05126946419477463,1.0]],"is_active_output":false,"name":"Mix","outputs":[[0.0,0.0,0.0,0.0]],"type":"MIX_RGB_BL","useClamp":false},{"inputs":[],"is_active_output":false,"name":"Light Path","outputs":[0.0,0.0,0.0,0.0,0.0,0.0,0.0,0.0,0.0,0.0,0.0,0.0,0.0],"type":"LIGHT_PATH_BL"},{"inputs":[[0.0,0.0,0.0]],"is_active_output":false,"name":"Environment Texture","outputs":[[0.0,0.0,0.0,0.0]],"projection":"EQUIRECTANGULAR","texture":13,"type":"TEX_ENVIRONMENT_BL"}]},"useCastShadows":true}},"name":"Verge3D_Environment_World"}],"meshes":[{"extensions":{"S8S_v3d_mesh":{"colorLayers":{},"uvLayers":{"map1":"TEXCOORD_0"}}},"name":"Mesh","primitives":[{"attributes":{"NORMAL":2,"POSITION":1,"TANGENT":3,"TEXCOORD_0":4},"indices":0,"material":0,"mode":4},{"attributes":{"NORMAL":7,"POSITION":6,"TANGENT":8,"TEXCOORD_0":9},"indices":5,"material":1,"mode":4}]},{"extensions":{"S8S_v3d_mesh":{"colorLayers":{},"uvLayers":{"UVMap":"TEXCOORD_0"}}},"name":"Sphere","primitives":[{"attributes":{"NORMAL":12,"POSITION":11,"TEXCOORD_0":13},"indices":10,"material":2,"mode":4}]}],"nodes":[{"extensions":{"S8S_v3d_node":{"frustumCulling":true,"groupNames":[],"hidden":false,"hidpiCompositing":false,"objectColor":[0.800000011920929,0.800000011920929,0.800000011920929,1.0],"objectIndex":0,"renderOrder":0,"useShadows":true}},"mesh":0,"name":"Franck_watch0","rotation":[0.7071068286895752,0.0,-0.0,0.7071067094802856],"scale":[0.009999999776482582,0.009999999776482582,0.009999999776482582]},{"extensions":{"S8S_v3d_node":{"frustumCulling":true,"groupNames":[],"hidden":true,"hidpiCompositing":false,"objectColor":[1.0,1.0,1.0,1.0],"objectIndex":0,"renderOrder":0,"useShadows":true}},"mesh":1,"name":"Sphere","scale":[3.94484281539917,3.94484281539917,3.94484281539917]},{"camera":0,"extensions":{"S8S_v3d_node":{"frustumCulling":true,"groupNames":["Collection 1"],"hidden":false,"hidpiCompositing":false,"objectColor":[0.0,0.0,0.0,0.0],"objectIndex":0,"renderOrder":0}},"name":"Camera","rotation":[-0.016033990308642387,-0.013952132314443588,-0.0002237587032141164,0.9997740983963013],"scale":[1.0,0.9999998807907104,0.9999999403953552],"translation":[-0.016525331884622574,0.0731998085975647,0.5919661521911621]},{"extensions":{"S8S_v3d_lights":{"light":0},"S8S_v3d_node":{"frustumCulling":true,"groupNames":["Collection 1"],"hidden":false,"hidpiCompositing":false,"objectColor":[0.0,0.0,0.0,0.0],"objectIndex":0,"renderOrder":0}},"name":"Lamp","rotation":[-0.2841663062572479,0.7269423604011536,0.34203389286994934,0.5232754945755005],"scale":[0.9999999403953552,0.9999997019767761,0.9999999403953552],"translation":[4.076245307922363,5.903861999511719,-1.0054539442062378]}],"samplers":[{}],"scene":0,"scenes":[{"extensions":{"S8S_v3d_scene":{"aaMethod":"AUTO","iblEnvironmentMode":"PMREM","physicallyCorrectLights":true,"pmremMaxTileSize":256,"postprocessing":[{"bentNormals":false,"bounceApprox":false,"distance":0.20000000298023224,"factor":1.0,"precision":0.25,"type":"gtao"}],"shadowMap":{"esmDistanceScale":1.0,"renderReverseSided":false,"renderSingleSided":true,"type":"PCFPOISSON"},"useHDR":true,"worldMaterial":3}},"extras":{"animFrameRate":24,"coordSystem":"Z_UP_RIGHT"},"name":"Scene","nodes":[0,1,3,2]}],"textures":[{"extensions":{"S8S_v3d_texture":{"colorSpace":"srgb"}},"name":"Franck_muller_vanguardfbx_Franck_watch1_BaseColor-min.png","sampler":0,"source":0},{"extensions":{"S8S_v3d_texture":{"colorSpace":"non-color"}},"name":"Franck_muller_vanguardfbx_Franck_watch1_Metallic-min.png","sampler":0,"source":1},{"extensions":{"S8S_v3d_texture":{"colorSpace":"non-color"}},"name":"Franck_muller_vanguardfbx_Franck_watch1_Roughness-min.png","sampler":0,"source":2},{"extensions":{"S8S_v3d_texture":{"colorSpace":"non-color"}},"name":"Franck_muller_vanguardfbx_Franck_watch1_Normal-min.png","sampler":0,"source":3},{"extensions":{"S8S_v3d_texture":{"colorSpace":"non-color"}},"name":"Franck_muller_vanguardfbx_Franck_watch1_Height-min.png","sampler":0,"source":4},{"extensions":{"S8S_v3d_texture":{"colorSpace":"non-color"}},"name":"glass_glass_Height-min.png","sampler":0,"source":5},{"extensions":{"S8S_v3d_texture":{"colorSpace":"srgb"}},"name":"Ambient occlusion-min.png","sampler":0,"source":6},{"extensions":{"S8S_v3d_texture":{"colorSpace":"srgb"}},"name":"glass_glass_BaseColor-min.png","sampler":0,"source":7},{"extensions":{"S8S_v3d_texture":{"colorSpace":"non-color"}},"name":"glass_glass_Normal-min.png","sampler":0,"source":8},{"extensions":{"S8S_v3d_texture":{"colorSpace":"non-color"}},"name":"glass_glass_Metallic-min.png","sampler":0,"source":9},{"extensions":{"S8S_v3d_texture":{"colorSpace":"non-color"}},"name":"glass_glass_Roughness-min.png","sampler":0,"source":10},{"extensions":{"S8S_v3d_texture":{"colorSpace":"srgb"}},"name":"opacity-min.png","sampler":0,"source":11},{"extensions":{"S8S_v3d_texture":{"colorSpace":"srgb"}},"name":"glass_glass_Emissive-min.png","sampler":0,"source":12},{"extensions":{"S8S_v3d_texture":{"colorSpace":"linear","source":13}},"name":"environment.hdr","sampler":0}]}
